HIERARCHY
ROOT Hips
{
	OFFSET 0.000000 0.000000 0.000000
	CHANNELS 6 Xposition Yposition Zposition Xrotation Yrotation Zrotation
	JOINT LeftUpLeg_virtual
	{
		OFFSET 0.000000 0.000000 0.000000
		CHANNELS 3 Xrotation Yrotation Zrotation
		JOINT LeftUpLeg
		{
			OFFSET 10.205400 -3.823500 0.155100
			CHANNELS 3 Xrotation Yrotation Zrotation
			JOINT LeftLeg
			{
				OFFSET 0.708757 -12.982077 0.567790
				CHANNELS 3 Xrotation Yrotation Zrotation
				JOINT LeftFoot
				{
					OFFSET -0.708756 -10.717838 -2.184338
					CHANNELS 3 Xrotation Yrotation Zrotation
					JOINT LeftToeBase
					{
						OFFSET 0.108149 -7.191104 7.560241
						CHANNELS 3 Xrotation Yrotation Zrotation
						JOINT LeftToe_End
						{
							OFFSET 0.070230 0.081724 4.490308
							CHANNELS 3 Xrotation Yrotation Zrotation
							End Site
							{
								OFFSET 0 0 0
							}
						}
					}
				}
			}
		}
	}
	JOINT RightUpLeg_virtual
	{
		OFFSET 0.000000 0.000000 0.000000
		CHANNELS 3 Xrotation Yrotation Zrotation
		JOINT RightUpLeg
		{
			OFFSET -10.205400 -3.823500 0.005500
			CHANNELS 3 Xrotation Yrotation Zrotation
			JOINT RightLeg
			{
				OFFSET -0.708756 -12.982134 0.610632
				CHANNELS 3 Xrotation Yrotation Zrotation
				JOINT RightFoot
				{
					OFFSET 0.708754 -10.717769 -1.945823
					CHANNELS 3 Xrotation Yrotation Zrotation
					JOINT RightToeBase
					{
						OFFSET -0.108140 -7.191069 7.372968
						CHANNELS 3 Xrotation Yrotation Zrotation
						JOINT RightToe_End
						{
							OFFSET -0.070227 0.081735 4.479403
							CHANNELS 3 Xrotation Yrotation Zrotation
							End Site
							{
								OFFSET 0 0 0
							}
						}
					}
				}
			}
		}
	}
	JOINT Spine_virtual
	{
		OFFSET 0.000000 0.000000 0.000000
		CHANNELS 3 Xrotation Yrotation Zrotation
		JOINT Spine
		{
			OFFSET 0.000000 6.876099 0.125700
			CHANNELS 3 Xrotation Yrotation Zrotation
			JOINT Spine1
			{
				OFFSET 0.000000 5.730043 0.104720
				CHANNELS 3 Xrotation Yrotation Zrotation
				JOINT Spine1_split
				{
					OFFSET 0.000000 5.730043 0.104720
					CHANNELS 3 Xrotation Yrotation Zrotation
					JOINT Spine2
					{
						OFFSET 0.000000 5.730043 0.104720
						CHANNELS 3 Xrotation Yrotation Zrotation
						JOINT Neck_virtual
						{
							OFFSET 0.000000 0.000000 0.000000
							CHANNELS 3 Xrotation Yrotation Zrotation
							JOINT Neck
							{
								OFFSET 0.000000 10.314075 0.188496
								CHANNELS 3 Xrotation Yrotation Zrotation
								JOINT Head
								{
									OFFSET 0.000000 7.643700 -2.377400
									CHANNELS 3 Xrotation Yrotation Zrotation
									JOINT HeadTop_End
									{
										OFFSET 0.000000 43.788605 -13.619600
										CHANNELS 3 Xrotation Yrotation Zrotation
										End Site
										{
											OFFSET 0 0 0
										}
									}
								}
							}
						}
						JOINT LeftShoulder_virtual
						{
							OFFSET 0.000000 0.000000 0.000000
							CHANNELS 3 Xrotation Yrotation Zrotation
							JOINT LeftShoulder
							{
								OFFSET 2.196100 4.412489 0.087492
								CHANNELS 3 Xrotation Yrotation Zrotation
								JOINT LeftShoulder_split
								{
									OFFSET 2.196100 4.412489 0.087492
									CHANNELS 3 Xrotation Yrotation Zrotation
									JOINT LeftArm
									{
										OFFSET 8.771219 -2.981674 -0.026999
										CHANNELS 3 Xrotation Yrotation Zrotation
										JOINT LeftForeArm
										{
											OFFSET 8.512804 0.000000 -0.000000
											CHANNELS 3 Xrotation Yrotation Zrotation
											JOINT LeftHand
											{
												OFFSET 18.484802 0.000000 -0.000000
												CHANNELS 3 Xrotation Yrotation Zrotation
												End Site
												{
													OFFSET 0 0 0
												}
											}
										}
									}
								}
							}
						}
						JOINT RightShoulder_virtual
						{
							OFFSET 0.000000 0.000000 0.000000
							CHANNELS 3 Xrotation Yrotation Zrotation
							JOINT RightShoulder
							{
								OFFSET -2.196100 4.412496 0.070690
								CHANNELS 3 Xrotation Yrotation Zrotation
								JOINT RightShoulder_split
								{
									OFFSET -2.196100 4.412496 0.070690
									CHANNELS 3 Xrotation Yrotation Zrotation
									JOINT RightArm
									{
										OFFSET -8.771282 -2.981682 -0.094208
										CHANNELS 3 Xrotation Yrotation Zrotation
										JOINT RightForeArm
										{
											OFFSET -8.494598 0.000000 0.000000
											CHANNELS 3 Xrotation Yrotation Zrotation
											JOINT RightHand
											{
												OFFSET -18.483803 0.000000 0.000001
												CHANNELS 3 Xrotation Yrotation Zrotation
												End Site
												{
													OFFSET 0 0 0
												}
											}
										}
									}
								}
							}
						}
					}
				}
			}
		}
	}
}
MOTION
Frames: 8
Frame Time: 0.03333333
0.862024 33.608932 -0.887793 0.000000 0.000000 0.000000 -0.286897 0.001868 -2.480461 -18.287512 11.376919 14.825197 33.762714 9.210062 -1.436886 -13.589075 5.014389 -9.144612 -0.473466 -0.000555 -0.000002 0.000000 0.000000 0.000000 -0.286897 0.001868 -2.480461 -1.864299 -3.789041 1.673279 18.283250 -2.367503 4.095192 -15.965864 -0.388816 -2.626112 -0.586247 -0.000189 -0.000007 0.000000 0.000000 0.000000 -0.286897 0.001868 -2.480461 0.563767 -1.394993 0.478648 0.884704 -0.154383 2.637805 0.000000 0.000000 0.000000 0.000000 0.000000 0.000000 0.868037 0.313564 2.550323 1.242741 -0.362780 0.178331 1.579608 0.543348 -5.747759 0.000000 0.000000 0.000000 0.868037 0.313564 2.550323 0.000008 -0.000067 -0.310606 0.000000 0.000000 0.000000 3.284662 -25.851913 -73.291598 2.210825 -20.459234 0.701229 0.000000 0.000000 0.000000 0.868037 0.313564 2.550323 0.000040 0.000005 0.311202 0.000000 0.000000 0.000000 5.327969 -3.221381 75.188765 -0.286927 18.990016 0.139598 0.000000 0.000000 0.000000 
0.917075 33.632683 -1.077150 0.000000 0.000000 0.000000 -1.536365 -3.459799 -2.906356 -16.491140 15.805418 16.764686 33.874255 10.451553 -1.246600 -14.836151 2.828117 -10.270537 -0.473466 -0.000553 -0.000002 0.000000 0.000000 0.000000 -1.536365 -3.459799 -2.906356 -6.074706 -3.753280 1.133680 24.145197 -0.538535 4.385692 -14.116077 2.323314 -2.496288 -1.694126 0.008571 -0.464539 0.000000 0.000000 0.000000 -1.536365 -3.459799 -2.906356 2.036569 -1.492835 0.526255 1.261821 -0.310409 2.528742 0.000000 0.000000 0.000000 0.000000 0.000000 0.000000 1.249909 0.054707 2.460124 0.302905 0.013837 0.261822 1.321119 3.847865 -5.697073 0.000000 0.000000 0.000000 1.249909 0.054707 2.460124 1.986223 0.122392 -0.120965 0.000000 0.000000 0.000000 8.094350 -24.899074 -68.198530 1.185685 -21.611477 0.480234 0.000000 0.000000 0.000000 1.249909 0.054707 2.460124 0.253470 0.912368 -0.080442 0.000000 0.000000 0.000000 3.636562 1.596724 74.135228 -0.350379 17.651432 0.182508 0.000000 0.000000 0.000000 
0.990072 33.564751 -1.445829 0.000000 0.000000 0.000000 -2.868662 -9.206794 -3.957521 -16.579888 25.010828 21.400996 34.724528 5.721124 -1.295094 -16.930214 3.277032 -9.848048 -0.473483 -0.000509 -0.000014 0.000000 0.000000 0.000000 -2.868662 -9.206794 -3.957521 -12.768245 -3.574118 -0.535864 31.270208 3.943815 4.921407 -11.765041 4.545435 0.961118 -1.559667 0.021069 -1.204165 0.000000 0.000000 0.000000 -2.868662 -9.206794 -3.957521 5.286626 -1.802962 0.554007 2.096228 -0.673417 2.240413 0.000000 0.000000 0.000000 0.000000 0.000000 0.000000 2.092914 -0.513344 2.211525 -0.450333 0.594607 0.431790 -1.746710 10.004499 -5.052606 0.000000 0.000000 0.000000 2.092914 -0.513344 2.211525 4.117136 0.657549 1.005807 0.000000 0.000000 0.000000 15.953527 -29.708229 -62.779199 -1.655358 -26.434859 -0.428593 0.000000 0.000000 0.000000 2.092914 -0.513344 2.211525 0.913446 3.143519 -1.042091 0.000000 0.000000 0.000000 -2.332371 5.204009 73.608812 -0.324174 15.628851 0.222825 0.000000 0.000000 0.000000 
0.999802 33.357212 -1.722294 0.000000 0.000000 0.000000 -2.764742 -16.206948 -5.342158 -19.686656 33.510824 28.336136 37.230022 3.025221 -1.388346 -19.879792 2.837374 -11.032663 -0.473497 -0.000501 -0.000013 0.000000 0.000000 0.000000 -2.764742 -16.206948 -5.342158 -19.185300 -3.561151 -1.754327 32.975187 8.769013 4.973669 -7.477272 7.723300 5.445434 -1.425014 0.016811 -1.073820 0.000000 0.000000 0.000000 -2.764742 -16.206948 -5.342158 8.561047 -2.332852 0.480858 2.957241 -1.084284 1.834164 0.000000 0.000000 0.000000 0.000000 0.000000 0.000000 2.959114 -1.076848 1.840604 -0.965282 1.204219 0.645530 -6.422727 17.365862 -3.759207 0.000000 0.000000 0.000000 2.959114 -1.076848 1.840604 6.415018 1.672821 2.667502 0.000000 0.000000 0.000000 24.361736 -33.759296 -57.375597 -6.067077 -40.575272 -2.868186 0.000000 0.000000 0.000000 2.959114 -1.076848 1.840604 1.812768 5.937536 -2.243447 0.000000 0.000000 0.000000 -10.128202 7.510771 73.806041 -0.285833 15.294679 0.285186 0.000000 0.000000 0.000000 
0.964180 33.082462 -1.892578 0.000000 0.000000 0.000000 -1.848811 -22.729802 -6.845346 -23.785316 37.772080 35.053900 40.650462 0.325206 -1.485901 -22.919625 5.654966 -12.237242 -0.473502 -0.000518 -0.000002 0.000000 0.000000 0.000000 -1.848811 -22.729802 -6.845346 -23.920745 -3.965854 -2.524347 32.376230 9.024442 4.435609 -4.505057 12.878506 10.815581 -0.450828 -0.000156 0.000001 0.000000 0.000000 0.000000 -1.848811 -22.729802 -6.845346 9.982371 -3.292895 0.350355 3.429639 -1.496039 1.388184 0.000000 0.000000 0.000000 0.000000 0.000000 0.000000 3.431723 -1.484886 1.407566 -1.293187 1.708825 0.861393 -9.657058 24.130353 -1.971999 0.000000 0.000000 0.000000 3.431723 -1.484886 1.407566 8.893605 3.198596 4.454183 0.000000 0.000000 0.000000 42.449325 -35.390321 -48.370013 -23.938568 -65.563703 -19.732729 0.000000 0.000000 0.000000 3.431723 -1.484886 1.407566 2.678491 8.564464 -3.310834 0.000000 0.000000 0.000000 -14.591342 8.516147 74.667205 -0.310554 18.940717 0.385690 0.000000 0.000000 0.000000 
0.886919 32.792160 -2.074602 0.000000 0.000000 0.000000 -1.075982 -28.503042 -8.224016 -27.826886 40.428098 41.470542 43.727428 -2.819820 -1.578352 -25.403073 9.427056 -12.956630 -0.473482 -0.000531 -0.000001 0.000000 0.000000 0.000000 -1.075982 -28.503042 -8.224016 -25.645895 -4.397196 -3.696571 30.659606 7.520241 3.726610 -4.139099 14.644250 14.508674 -0.299958 -0.000164 0.000003 0.000000 0.000000 0.000000 -1.075982 -28.503042 -8.224016 10.449315 -4.216518 0.188883 3.637072 -1.875062 0.980248 0.000000 0.000000 0.000000 0.000000 0.000000 0.000000 3.640930 -1.857336 1.010853 -1.437668 2.139228 1.084520 -11.560830 29.951592 -0.498628 0.000000 0.000000 0.000000 3.640930 -1.857336 1.010853 11.919286 5.346392 5.818938 0.000000 0.000000 0.000000 66.158046 -33.416229 -40.464718 -132.876549 -70.849238 -130.964465 0.000000 0.000000 0.000000 3.640930 -1.857336 1.010853 3.107979 10.330091 -3.802375 0.000000 0.000000 0.000000 -14.427509 7.308047 75.303778 -0.515246 29.972000 0.609905 0.000000 0.000000 0.000000 
0.897115 32.663158 -2.396740 0.000000 0.000000 0.000000 -0.716567 -33.256109 -9.013708 -30.636936 42.870324 45.904469 44.730608 -5.091328 -1.541412 -26.270846 12.421608 -13.251901 -0.473489 -0.000521 -0.000007 0.000000 0.000000 0.000000 -0.716567 -33.256109 -9.013708 -22.659926 -4.033338 -5.715755 30.852224 5.326662 3.288030 -10.028379 3.271143 11.016349 -0.120944 -0.000264 -0.000000 0.000000 0.000000 0.000000 -0.716567 -33.256109 -9.013708 10.811465 -5.002275 0.166868 3.684942 -2.201698 0.688266 0.000000 0.000000 0.000000 0.000000 0.000000 0.000000 3.691408 -2.178573 0.726471 -1.492642 2.480437 1.322213 -12.174891 34.727400 -0.580062 0.000000 0.000000 0.000000 3.691408 -2.178573 0.726471 15.243153 8.629481 7.416184 0.000000 0.000000 0.000000 81.584465 -39.178208 -35.945069 -147.371823 -55.990281 -147.750925 0.000000 0.000000 0.000000 3.691408 -2.178573 0.726471 2.519593 11.424390 -2.583030 0.000000 0.000000 0.000000 -9.865779 5.223067 73.224068 -0.979024 46.381151 0.994914 0.000000 0.000000 0.000000 
0.954926 32.520905 -2.770597 0.000000 0.000000 0.000000 -1.005762 -36.434770 -8.683768 -31.246527 45.403857 47.175796 44.483161 -6.627785 -1.392654 -26.255167 14.519736 -13.091891 -0.473508 -0.000531 -0.000010 0.000000 0.000000 0.000000 -1.005762 -36.434770 -8.683768 -20.514203 -5.003988 -8.738944 34.349786 -1.603016 2.657979 -10.900392 -0.327511 4.423029 -0.041170 -0.000174 -0.000002 0.000000 0.000000 0.000000 -1.005762 -36.434770 -8.683768 11.644634 -5.659480 0.302595 3.576248 -2.259470 0.532545 0.000000 0.000000 0.000000 0.000000 0.000000 0.000000 3.579389 -2.240086 0.572677 -1.607766 2.726118 1.624056 -10.972369 38.148539 -3.852875 0.000000 0.000000 0.000000 3.579389 -2.240086 0.572677 17.855026 12.334035 9.141985 0.000000 0.000000 0.000000 86.442724 -44.354470 -34.884074 -146.600667 -50.700177 -148.300537 0.000000 0.000000 0.000000 3.579389 -2.240086 0.572677 1.344957 12.335771 -0.406556 0.000000 0.000000 0.000000 -3.308582 1.930128 68.444342 -1.844197 62.289140 1.733794 0.000000 0.000000 0.000000 
